<?xml version="1.0" encoding="UTF-8"?>
<svg xmlns="http://www.w3.org/2000/svg" width="16" height="16" viewBox="0 0 24 24"><path fill="#2e3436" fill-rule="evenodd" d="M21.74,9.75 L21.74,14.25 L19.02,13.62 L18.11,15.82 L20.48,17.30 L17.30,20.48 L15.82,18.11 L13.62,19.02 L14.25,21.74 L9.75,21.74 L10.38,19.02 L8.18,18.11 L6.70,20.48 L3.52,17.30 L5.89,15.82 L4.98,13.62 L2.26,14.25 L2.26,9.75 L4.98,10.38 L5.89,8.18 L3.52,6.70 L6.70,3.52 L8.18,5.89 L10.38,4.98 L9.75,2.26 L14.25,2.26 L13.62,4.98 L15.82,5.89 L17.30,3.52 L20.48,6.70 L18.11,8.18 L19.02,10.38 Z M15.4,12 A3.4,3.4 0 1,0 8.6,12 A3.4,3.4 0 1,0 15.4,12 Z"/></svg>
